<?xml version="1.0" standalone="no"?>
<!DOCTYPE svg PUBLIC "-//W3C//DTD SVG 20010904//EN"
 "http://www.w3.org/TR/2001/REC-SVG-20010904/DTD/svg10.dtd">
<svg version="1.0" xmlns="http://www.w3.org/2000/svg"
 width="488.000000pt" height="135.000000pt" viewBox="0 0 488.000000 135.000000"
 preserveAspectRatio="xMidYMid meet">

<g transform="translate(0.000000,135.000000) scale(0.100000,-0.100000)"
fill="#000000" stroke="none">
<path d="M0 675 l0 -675 2440 0 2440 0 0 675 0 675 -2440 0 -2440 0 0 -675z
m1189 480 c16 -8 34 -28 40 -46 15 -44 15 -834 0 -878 -21 -59 -34 -61 -384
-61 -173 0 -315 3 -316 8 0 4 -1 37 -2 75 -2 62 0 67 19 67 41 0 51 21 72 153
11 71 22 131 25 133 5 5 167 -32 174 -40 3 -3 -1 -53 -8 -111 -10 -91 -10
-108 2 -117 14 -9 242 -3 259 7 4 2 -8 91 -26 197 -19 106 -43 249 -54 318
-21 130 -31 150 -76 150 -34 0 -44 -22 -56 -123 l-11 -95 -79 -7 c-44 -3 -82
-4 -85 -2 -2 3 5 38 17 79 12 40 24 85 27 99 l5 27 -91 7 c-51 4 -97 13 -104
19 -9 10 -15 131 -8 154 1 1 143 2 316 2 258 0 321 -3 344 -15z m321 -294 c5
-11 10 -40 10 -66 0 -45 0 -45 28 -38 80 23 154 -5 189 -70 24 -46 31 -198 10
-216 -9 -7 -24 -11 -34 -9 -15 3 -19 17 -23 95 -6 100 -19 127 -70 138 -37 8
-88 -18 -95 -48 -3 -12 -6 -55 -7 -96 -3 -78 -17 -101 -52 -88 -14 6 -16 30
-16 206 0 202 1 208 37 210 7 1 17 -8 23 -18z m496 -112 c75 -36 105 -134 63
-208 -27 -47 -61 -72 -109 -78 -53 -7 -84 2 -125 38 -62 55 -70 148 -18 210
51 60 117 73 189 38z m174 2 c5 -11 10 -54 10 -96 0 -67 3 -79 25 -100 30 -31
82 -33 113 -5 23 22 31 54 35 144 1 44 6 62 20 70 15 9 21 7 33 -9 12 -15 15
-40 12 -106 -4 -76 -8 -91 -32 -123 -38 -50 -79 -69 -136 -64 -57 6 -102 35
-124 82 -20 41 -23 195 -4 214 18 18 36 15 48 -7z m509 0 c19 -35 -6 -50 -89
-53 -67 -3 -75 -5 -75 -23 0 -18 8 -21 87 -25 73 -5 91 -9 111 -29 44 -40 42
-97 -4 -140 -20 -18 -35 -21 -111 -21 -73 0 -90 3 -95 16 -13 35 11 49 88 52
74 3 97 15 77 39 -7 9 -37 13 -90 13 -75 0 -81 2 -109 29 -33 34 -39 83 -13
119 23 33 48 41 136 41 66 1 79 -2 87 -18z m311 0 c43 -22 69 -57 79 -103 14
-62 4 -68 -122 -68 l-112 -1 28 -24 c33 -29 73 -32 115 -8 35 20 65 11 60 -18
-8 -56 -121 -87 -187 -52 -51 26 -74 64 -79 128 -4 46 -1 61 19 90 27 40 90
75 134 75 17 0 46 -8 65 -19z m185 -83 l50 -97 50 97 c51 100 74 118 99 80 8
-14 -1 -41 -49 -138 -63 -128 -84 -156 -109 -147 -9 4 -46 67 -83 141 -58 116
-65 137 -53 151 24 29 45 11 95 -87z m410 88 c29 -13 35 -13 46 0 16 20 36 18
49 -5 15 -28 13 -264 -2 -279 -15 -15 -45 -15 -50 0 -3 9 -12 9 -36 -1 -42
-18 -112 -9 -150 17 -42 31 -65 85 -60 142 6 58 30 93 83 120 47 24 74 25 120
6z m306 -2 c49 -25 60 -61 57 -182 -3 -95 -5 -107 -22 -110 -32 -7 -41 16 -46
121 -5 101 -5 102 -34 112 -24 8 -31 6 -47 -14 -15 -19 -19 -40 -19 -106 0
-46 -3 -90 -6 -99 -7 -19 -35 -21 -52 -4 -15 15 -17 269 -2 284 15 15 140 14
171 -2z m328 -11 c35 -27 36 -69 1 -67 -14 1 -39 7 -56 14 -84 35 -152 -70
-88 -134 31 -30 69 -34 112 -9 64 37 85 -22 23 -64 -94 -64 -231 17 -231 136
0 55 44 117 100 140 36 15 108 7 139 -16z m267 6 c31 -15 48 -32 63 -63 44
-91 29 -106 -108 -106 l-104 0 23 -25 c27 -29 75 -33 106 -10 27 20 51 19 64
-5 8 -15 6 -23 -12 -40 -68 -65 -171 -50 -232 33 -32 43 -29 123 8 171 50 66
117 82 192 45z"/>
<path d="M1893 688 c-26 -12 -47 -68 -38 -98 19 -60 96 -80 140 -35 70 69 -13
176 -102 133z"/>
<path d="M2882 684 c-38 -26 -25 -34 56 -34 l77 1 -28 24 c-32 29 -72 32 -105
9z"/>
<path d="M3503 690 c-48 -19 -58 -95 -18 -135 43 -44 112 -29 135 29 27 73
-42 136 -117 106z"/>
<path d="M4373 675 l-28 -24 78 -1 c80 0 93 8 55 34 -33 23 -73 20 -105 -9z"/>
</g>
</svg>
